<?xml version="1.0" encoding="UTF-8"?>
<!DOCTYPE svg PUBLIC "-//W3C//DTD SVG 1.1//EN" "http://www.w3.org/Graphics/SVG/1.1/DTD/svg11.dtd">
<!-- Creator: CorelDRAW X7 -->
<svg xmlns="http://www.w3.org/2000/svg" xml:space="preserve" width="463.296mm" height="308.864mm" version="1.1" style="shape-rendering:geometricPrecision; text-rendering:geometricPrecision; image-rendering:optimizeQuality; fill-rule:evenodd; clip-rule:evenodd"
viewBox="0 0 52288 34859"
 xmlns:xlink="http://www.w3.org/1999/xlink">
 <defs>
  <style type="text/css">
   <![CDATA[
    .fil0 {fill:#332C2B}
   ]]>
  </style>
 </defs>
 <g id="Layer_x0020_1">
  <metadata id="CorelCorpID_0Corel-Layer"/>
  <path class="fil0" d="M0 21387c0,0 4,245 877,551 479,169 1192,398 2404,479 360,24 763,35 1218,28 4777,-77 10243,-2217 11084,-3211 841,-994 2714,-2484 2714,-3707 0,-1223 -115,-2599 76,-3440 191,-841 3402,-3670 3402,-3670 0,0 7148,-5618 8638,-6727 1491,-1108 2483,-1690 2483,-1690l19392 0 0 34859 -52288 0 0 -13472z"/>
 </g>
</svg>
