<?xml version="1.0" encoding="UTF-8"?>
<!DOCTYPE svg PUBLIC "-//W3C//DTD SVG 1.1//EN" "http://www.w3.org/Graphics/SVG/1.1/DTD/svg11.dtd">
<!-- Creator: CorelDRAW X7 -->
<svg xmlns="http://www.w3.org/2000/svg" xml:space="preserve" width="62.5686mm" height="32.7293mm" version="1.1" style="shape-rendering:geometricPrecision; text-rendering:geometricPrecision; image-rendering:optimizeQuality; fill-rule:evenodd; clip-rule:evenodd"
viewBox="0 0 5236 2739"
 xmlns:xlink="http://www.w3.org/1999/xlink">
 <defs>
  <style type="text/css">
   <![CDATA[
    .fil0 {fill:#332C2B}
   ]]>
  </style>
 </defs>
 <g id="Layer_x0020_1">
  <metadata id="CorelCorpID_0Corel-Layer"/>
  <path class="fil0" d="M0 2541l805 -15c0,0 63,-142 106,-212 3,-5 6,-9 9,-14 51,-68 182,-149 182,-149 0,0 15,-206 149,-319 32,-27 58,-50 85,-67 78,-49 141,-59 220,-75 106,-21 219,-28 283,-14 34,8 97,10 152,32 49,19 91,58 124,74 39,20 99,82 131,149 28,56 30,118 39,128 22,21 128,78 128,78 0,0 184,42 205,49 22,7 64,7 64,7 0,0 128,-170 241,-205 113,-36 290,-36 404,14 113,50 134,57 170,57 238,0 60,37 205,-25 158,-67 300,-106 468,-39 35,14 120,71 120,71l64 78 57 148 -21 163 382 71 -21 156c0,0 464,57 475,57 10,0 10,-2739 10,-2739l-5236 0 0 2541z"/>
 </g>
</svg>
